<svg xmlns="http://www.w3.org/2000/svg" fill="none"  width="256" height="256" viewBox="0 0 100 100">
    <path d="M11.14 44.42Q11.14 46.94 10.39 48.16Q9.64 49.39 7.94 50L7.94 50Q9.64 50.61 10.39 51.84Q11.14 53.06 11.14 55.58L11.14 55.58L11.14 72.37Q11.14 77.81 16.31 77.81L16.31 77.81L18.14 77.81L18.14 81.82L15.63 81.82Q6.31 81.82 6.31 72.78L6.31 72.78L6.31 55.51Q6.31 52.04 3.25 52.04L3.25 52.04L0.94 52.04L0.94 47.96L3.25 47.96Q6.31 47.96 6.31 44.49L6.31 44.49L6.31 27.22Q6.31 18.18 15.63 18.18L15.63 18.18L18.14 18.18L18.14 22.19L16.31 22.19Q11.14 22.19 11.14 27.63L11.14 27.63L11.14 44.42ZM43.44 62.99L45.14 66.46Q43.78 67.68 41.77 68.33Q39.77 68.97 37.59 68.97L37.59 68.97Q32.56 68.97 29.84 66.25Q27.12 63.53 27.12 58.57L27.12 58.57L27.12 36.94L20.73 36.94L20.73 32.86L27.12 32.86L27.12 25.04L31.95 25.04L31.95 32.86L42.83 32.86L42.83 36.94L31.95 36.94L31.95 58.30Q31.95 61.49 33.54 63.16Q35.14 64.82 38.13 64.82L38.13 64.82Q39.63 64.82 41.02 64.35Q42.42 63.87 43.44 62.99L43.44 62.99ZM63.50 68.97Q59.15 68.97 55.17 67.71Q51.19 66.46 48.95 64.55L48.95 64.55L51.12 60.74Q53.37 62.51 56.77 63.63Q60.17 64.76 63.84 64.76L63.84 64.76Q68.73 64.76 71.08 63.23Q73.43 61.70 73.43 58.91L73.43 58.91Q73.43 56.94 72.13 55.81Q70.84 54.69 68.87 54.11Q66.90 53.54 63.63 52.99L63.63 52.99Q59.28 52.18 56.63 51.33Q53.98 50.48 52.11 48.44Q50.24 46.40 50.24 42.79L50.24 42.79Q50.24 38.30 53.98 35.45Q57.72 32.59 64.38 32.59L64.38 32.59Q67.85 32.59 71.32 33.51Q74.79 34.43 77.03 35.92L77.03 35.92L74.92 39.80Q70.50 36.74 64.38 36.74L64.38 36.74Q59.76 36.74 57.41 38.37Q55.07 40.00 55.07 42.66L55.07 42.66Q55.07 44.70 56.39 45.92Q57.72 47.14 59.69 47.72Q61.66 48.30 65.13 48.91L65.13 48.91Q69.41 49.73 72.00 50.54Q74.58 51.36 76.42 53.33Q78.25 55.30 78.25 58.77L78.25 58.77Q78.25 63.46 74.34 66.22Q70.43 68.97 63.50 68.97L63.50 68.97ZM96.75 47.96L99.06 47.96L99.06 52.04L96.75 52.04Q93.69 52.04 93.69 55.51L93.69 55.51L93.69 72.78Q93.69 81.82 84.44 81.82L84.44 81.82L81.86 81.82L81.86 77.81L83.69 77.81Q88.86 77.81 88.86 72.37L88.86 72.37L88.86 55.58Q88.86 53.06 89.61 51.84Q90.36 50.61 92.06 50L92.06 50Q90.36 49.39 89.61 48.16Q88.86 46.94 88.86 44.42L88.86 44.42L88.86 27.63Q88.86 22.19 83.69 22.19L83.69 22.19L81.86 22.19L81.86 18.18L84.44 18.18Q93.69 18.18 93.69 27.22L93.69 27.22L93.69 44.49Q93.69 47.96 96.75 47.96L96.75 47.96Z" />
    <style>
        path { fill: #000; }
        @media (prefers-color-scheme: dark) {
            path { fill: #FFF; }
        }
    </style>
</svg>
